<?xml version="1.0" encoding="utf-8"?>
<!-- Generator: Adobe Illustrator 24.0.2, SVG Export Plug-In . SVG Version: 6.00 Build 0)  -->
<svg version="1.1" id="Layer_1" xmlns="http://www.w3.org/2000/svg" xmlns:xlink="http://www.w3.org/1999/xlink" x="0px" y="0px"
	 viewBox="0 0 180 60" style="enable-background:new 0 0 180 60;" xml:space="preserve">
<style type="text/css">
	.st0{font-family:'NotoSansKR-Regular-KSCpc-EUC-H';}
	.st1{font-size:50.7895px;}
	.st2{stroke:#FFFFFF;stroke-width:0.1;stroke-miterlimit:10;}
	.st3{font-family:'OTSolmoeKimDaeGeonM-KSCpc-EUC-H';}
	.st4{font-size:16.9075px;}
</style>
<g>
	<g>
		<g>
			<path d="M51.58,4.28h3.51v10.56h0.09l8.47-10.56h3.9l-6.9,8.63l8.05,13.68h-3.9l-6.3-10.93l-3.42,4.21v6.72h-3.51V4.28z"/>
		</g>
	</g>
	<g>
		<path d="M68.38,37.79l0.91-5.03c0.83,2.58,1.64,4.29,2.64,4.29c1.12,0,1.64-2.18,1.64-5.03c0-3.4-1.05-4.9-2.05-6.46
			c-1.25-1.9-2.62-4.56-2.62-10.88c0-6.26,1.25-10.95,3.31-10.95c1.23,0,2.27,2.04,3.01,4.42l-0.91,4.83
			c-0.64-1.9-1.3-3.26-2.06-3.26c-1.03,0-1.5,2.04-1.5,4.62c0,3.2,0.91,4.42,1.93,5.92c1.3,1.97,2.74,4.28,2.74,11.36
			c0,6.26-1.23,11.36-3.53,11.36C70.59,42.96,69.29,40.78,68.38,37.79z"/>
	</g>
	<text transform="matrix(0 1 -1 0 45.0047 22.2055)" class="st0 st1">D</text>
	<text transform="matrix(1 0 0 1 78.8514 44.2485)" class="st2 st3 st4">국순당</text>
</g>
</svg>
